<svg width="313" height="287" viewBox="0 0 313 287" fill="none" xmlns="http://www.w3.org/2000/svg">
<ellipse cx="156.5" cy="172" rx="108.5" ry="115" fill="#D9D9D9"/>
<path d="M46.9139 46.9495C46.0697 41.4649 51.6382 37.2256 56.7004 39.4992L127.664 71.3715C132.507 73.5468 133.26 80.1108 129.036 83.3267L69.9066 128.341C65.6822 131.557 59.5556 129.084 58.7479 123.837L46.9139 46.9495Z" fill="#D9D9D9"/>
<path d="M255.094 39.0242C260.123 36.679 265.751 40.8389 264.985 46.335L254.242 123.382C253.509 128.64 247.418 131.2 243.149 128.045L183.387 83.8732C179.117 80.7175 179.778 74.1435 184.589 71.8998L255.094 39.0242Z" fill="#D9D9D9"/>
<line x1="128.837" y1="204.473" x2="73.8367" y2="185.473" stroke="black"/>
<line y1="-0.5" x2="58.1893" y2="-0.5" transform="matrix(0.94519 -0.32652 -0.32652 -0.94519 192 204)" stroke="black"/>
<line x1="80" y1="204.5" x2="128" y2="204.5" stroke="black"/>
<line x1="192" y1="204.5" x2="240" y2="204.5" stroke="black"/>
<line x1="129.211" y1="204.453" x2="84.2114" y2="225.453" stroke="black"/>
<line y1="-0.5" x2="49.6588" y2="-0.5" transform="matrix(0.906183 0.422885 0.422885 -0.906183 192 204)" stroke="black"/>
<path d="M155.266 212.262C157.227 215.382 161.773 215.382 163.734 212.262L170.709 201.16C172.801 197.83 170.408 193.5 166.475 193.5H152.525C148.592 193.5 146.199 197.83 148.291 201.16L155.266 212.262Z" fill="black"/>
<circle cx="122.5" cy="142.5" r="15.5" fill="black"/>
<circle cx="198.5" cy="142.5" r="15.5" fill="black"/>
</svg>
