<svg width="169" height="196" viewBox="0 0 169 196" fill="none" xmlns="http://www.w3.org/2000/svg">
<ellipse cx="119.098" cy="39.1079" rx="20.4483" ry="44.7403" transform="rotate(61.9063 119.098 39.1079)" fill="black"/>
<ellipse cx="83" cy="112" rx="48" ry="84" fill="#D9D9D9"/>
<ellipse cx="49.0983" cy="58.1079" rx="20.4483" ry="44.7403" transform="rotate(61.9063 49.0983 58.1079)" fill="#D9D9D9"/>
<ellipse cx="62.5" cy="101" rx="9.5" ry="11" fill="black"/>
<ellipse cx="104.5" cy="101" rx="9.5" ry="11" fill="black"/>
<path d="M74.1159 123.707C72.9534 121.7 74.412 119.189 76.7318 119.204L88.8421 119.284C91.1463 119.299 92.5739 121.798 91.4165 123.791L85.3748 134.191C84.2174 136.184 81.3391 136.182 80.1845 134.188L74.1159 123.707Z" fill="black"/>
<ellipse cx="83" cy="155" rx="9" ry="12" fill="#EF3939"/>
<rect x="63" y="143" width="42" height="9" fill="#D9D9D9"/>
</svg>
