<svg width="201" height="158" viewBox="0 0 201 158" fill="none" xmlns="http://www.w3.org/2000/svg">
<ellipse cx="51" cy="60" rx="39" ry="40" fill="#C97A20"/>
<path d="M17.8533 14.751C17.9496 12.4722 20.453 11.1301 22.4041 12.3112L43.388 25.0132C45.3759 26.2166 45.3 29.1257 43.252 30.2237L21.2323 42.0286C19.1843 43.1266 16.7194 41.5796 16.8175 39.2579L17.8533 14.751Z" fill="#C97A20"/>
<path d="M76.4977 12.6417C78.3903 11.3688 80.9549 12.5898 81.1599 14.8614L83.3645 39.2909C83.5734 41.6053 81.1851 43.2681 79.087 42.2692L56.5289 31.529C54.4308 30.5301 54.216 27.6279 56.1442 26.331L76.4977 12.6417Z" fill="#C97A20"/>
<ellipse cx="37.5" cy="52.5" rx="4.5" ry="5.5" fill="black"/>
<ellipse cx="62.5" cy="52.5" rx="4.5" ry="5.5" fill="black"/>
<ellipse cx="103.5" cy="112" rx="70.5" ry="46" fill="#C97A20"/>
<line x1="41.8563" y1="70.4789" x2="21.8563" y2="64.4789" stroke="black"/>
<line x1="42" y1="70.5" x2="22" y2="70.5" stroke="black"/>
<line x1="42.2052" y1="70.456" x2="22.2052" y2="79.456" stroke="black"/>
<line x1="80.2052" y1="61.456" x2="60.2052" y2="70.456" stroke="black"/>
<line x1="77.0294" y1="69.4991" x2="60.0294" y2="70.4991" stroke="black"/>
<line x1="79.8563" y1="76.4789" x2="59.8563" y2="70.4789" stroke="black"/>
<g filter="url(#filter0_d_1_25)">
<path d="M168.5 106C179.167 101.833 198.3 88.1 189.5 66.5" stroke="#C97A20" stroke-width="10"/>
</g>
<defs>
<filter id="filter0_d_1_25" x="162.681" y="64.6135" width="38.0706" height="54.0438" filterUnits="userSpaceOnUse" color-interpolation-filters="sRGB">
<feFlood flood-opacity="0" result="BackgroundImageFix"/>
<feColorMatrix in="SourceAlpha" type="matrix" values="0 0 0 0 0 0 0 0 0 0 0 0 0 0 0 0 0 0 127 0" result="hardAlpha"/>
<feOffset dy="4"/>
<feGaussianBlur stdDeviation="2"/>
<feComposite in2="hardAlpha" operator="out"/>
<feColorMatrix type="matrix" values="0 0 0 0 0 0 0 0 0 0 0 0 0 0 0 0 0 0 0.25 0"/>
<feBlend mode="normal" in2="BackgroundImageFix" result="effect1_dropShadow_1_25"/>
<feBlend mode="normal" in="SourceGraphic" in2="effect1_dropShadow_1_25" result="shape"/>
</filter>
</defs>
</svg>
